REM DIRINDEX 1\2,1\3,1\4,1\5,1\6,1\7,1\8
REM DIRNAME folder01,folder02,folder03,folder04,folder05,folder06,folder07,folder08
TITLE ""
FILE "006 ‚Å‚é•¶36.mp3" MP3
  TRACK 01 AUDIO
    TITLE "0:"
    INDEX 01 00:00:00
  TRACK 02 AUDIO
    TITLE "8:cjc150_1665"
    INDEX 01 00:00:01
  TRACK 03 AUDIO
    TITLE "0:"
    INDEX 01 00:01:56
  TRACK 04 AUDIO
    TITLE "2:cjc150_1666"
    INDEX 01 00:02:32
  TRACK 05 AUDIO
    TITLE "0:"
    INDEX 01 00:08:36
  TRACK 06 AUDIO
    TITLE "8:cjc150_1667"
    INDEX 01 00:09:61
  TRACK 07 AUDIO
    TITLE "0:"
    INDEX 01 00:12:38
  TRACK 08 AUDIO
    TITLE "3:cjc150_1668"
    INDEX 01 00:13:22
  TRACK 09 AUDIO
    TITLE "3:cjc150_1669"
    INDEX 01 00:14:58
  TRACK 10 AUDIO
    TITLE "3:cjc150_1670"
    INDEX 01 00:16:16
  TRACK 11 AUDIO
    TITLE "3:cjc150_1671"
    INDEX 01 00:17:57
  TRACK 12 AUDIO
    TITLE "3:cjc150_1672"
    INDEX 01 00:19:15
  TRACK 13 AUDIO
    TITLE "3:cjc150_1673"
    INDEX 01 00:21:27
  TRACK 14 AUDIO
    TITLE "3:cjc150_1674"
    INDEX 01 00:23:59
  TRACK 15 AUDIO
    TITLE "3:cjc150_1675"
    INDEX 01 00:25:15
  TRACK 16 AUDIO
    TITLE "3:cjc150_1676"
    INDEX 01 00:26:56
  TRACK 17 AUDIO
    TITLE "3:cjc150_1677"
    INDEX 01 00:28:45
  TRACK 18 AUDIO
    TITLE "8:cjc150_1678"
    INDEX 01 00:30:36
  TRACK 19 AUDIO
    TITLE "0:"
    INDEX 01 00:33:13
  TRACK 20 AUDIO
    TITLE "4:cjc150_1679"
    INDEX 01 00:34:04
  TRACK 21 AUDIO
    TITLE "4:cjc150_1680"
    INDEX 01 00:35:43
  TRACK 22 AUDIO
    TITLE "4:cjc150_1681"
    INDEX 01 00:37:52
  TRACK 23 AUDIO
    TITLE "4:cjc150_1682"
    INDEX 01 00:40:60
  TRACK 24 AUDIO
    TITLE "4:cjc150_1683"
    INDEX 01 00:44:38
  TRACK 25 AUDIO
    TITLE "4:cjc150_1684"
    INDEX 01 00:47:30
  TRACK 26 AUDIO
    TITLE "8:cjc150_1685"
    INDEX 01 00:50:68
  TRACK 27 AUDIO
    TITLE "0:"
    INDEX 01 00:53:60
  TRACK 28 AUDIO
    TITLE "5:cjc150_1686"
    INDEX 01 00:54:42
  TRACK 29 AUDIO
    TITLE "5:cjc150_1687"
    INDEX 01 00:56:14
  TRACK 30 AUDIO
    TITLE "5:cjc150_1688"
    INDEX 01 00:58:32
  TRACK 31 AUDIO
    TITLE "5:cjc150_1689"
    INDEX 01 00:59:71
  TRACK 32 AUDIO
    TITLE "5:cjc150_1690"
    INDEX 01 01:01:23
  TRACK 33 AUDIO
    TITLE "5:cjc150_1691"
    INDEX 01 01:02:46
  TRACK 34 AUDIO
    TITLE "5:cjc150_1692"
    INDEX 01 01:05:07
  TRACK 35 AUDIO
    TITLE "5:cjc150_1693"
    INDEX 01 01:06:42
  TRACK 36 AUDIO
    TITLE "5:cjc150_1694"
    INDEX 01 01:07:72
  TRACK 37 AUDIO
    TITLE "5:cjc150_1695"
    INDEX 01 01:09:61
  TRACK 38 AUDIO
    TITLE "5:cjc150_1696"
    INDEX 01 01:12:66
  TRACK 39 AUDIO
    TITLE "5:cjc150_1697"
    INDEX 01 01:15:09
  TRACK 40 AUDIO
    TITLE "5:cjc150_1698"
    INDEX 01 01:17:26
  TRACK 41 AUDIO
    TITLE "5:cjc150_1699"
    INDEX 01 01:18:41
  TRACK 42 AUDIO
    TITLE "5:cjc150_1700"
    INDEX 01 01:20:51
  TRACK 43 AUDIO
    TITLE "5:cjc150_1701"
    INDEX 01 01:22:11
  TRACK 44 AUDIO
    TITLE "5:cjc150_1702"
    INDEX 01 01:23:30
  TRACK 45 AUDIO
    TITLE "5:cjc150_1703"
    INDEX 01 01:25:33
  TRACK 46 AUDIO
    TITLE "5:cjc150_1704"
    INDEX 01 01:28:16
  TRACK 47 AUDIO
    TITLE "5:cjc150_1705"
    INDEX 01 01:30:03
  TRACK 48 AUDIO
    TITLE "8:cjc150_1706"
    INDEX 01 01:31:65
  TRACK 49 AUDIO
    TITLE "0:"
    INDEX 01 01:34:44
  TRACK 50 AUDIO
    TITLE "6:cjc150_1707"
    INDEX 01 01:35:31
  TRACK 51 AUDIO
    TITLE "6:cjc150_1708"
    INDEX 01 01:37:03
  TRACK 52 AUDIO
    TITLE "6:cjc150_1709"
    INDEX 01 01:39:35
  TRACK 53 AUDIO
    TITLE "6:cjc150_1710"
    INDEX 01 01:41:03
  TRACK 54 AUDIO
    TITLE "6:cjc150_1711"
    INDEX 01 01:42:41
  TRACK 55 AUDIO
    TITLE "6:cjc150_1712"
    INDEX 01 01:45:24
  TRACK 56 AUDIO
    TITLE "6:cjc150_1713"
    INDEX 01 01:49:26
  TRACK 57 AUDIO
    TITLE "6:cjc150_1714"
    INDEX 01 01:52:28
  TRACK 58 AUDIO
    TITLE "6:cjc150_1715"
    INDEX 01 01:55:34
  TRACK 59 AUDIO
    TITLE "6:cjc150_1716"
    INDEX 01 01:58:23
  TRACK 60 AUDIO
    TITLE "6:cjc150_1717"
    INDEX 01 02:02:05
  TRACK 61 AUDIO
    TITLE "6:cjc150_1718"
    INDEX 01 02:04:64
  TRACK 62 AUDIO
    TITLE "8:cjc150_1719"
    INDEX 01 02:06:71
  TRACK 63 AUDIO
    TITLE "0:"
    INDEX 01 02:08:50
  TRACK 64 AUDIO
    TITLE "7:cjc150_1720"
    INDEX 01 02:09:50
  TRACK 65 AUDIO
    TITLE "7:cjc150_1721"
    INDEX 01 02:15:51
  TRACK 66 AUDIO
    TITLE "0:"
    INDEX 01 02:22:13
